<?xml version="1.0" standalone="no"?>
<!DOCTYPE svg PUBLIC "-//W3C//DTD SVG 20010904//EN"
 "http://www.w3.org/TR/2001/REC-SVG-20010904/DTD/svg10.dtd">
<svg version="1.0" xmlns="http://www.w3.org/2000/svg"
 width="1500.000000pt" height="1500.000000pt" viewBox="0 0 1500.000000 1500.000000"
 preserveAspectRatio="xMidYMid meet">
<metadata>
Created by potrace 1.14, written by Peter Selinger 2001-2017
</metadata>
<g transform="translate(0.000000,1500.000000) scale(0.100000,-0.100000)"
fill="#000000" stroke="none">
<path d="M3292 7863 c-5 -10 -71 -171 -147 -358 -176 -437 -177 -439 -220
-459 -19 -10 -35 -23 -35 -31 0 -12 23 -15 130 -15 108 0 130 2 130 15 0 9
-14 17 -40 21 -21 4 -47 15 -56 25 -16 18 -15 23 13 101 l29 83 146 3 146 3
23 -58 c12 -32 22 -78 23 -103 l1 -45 -47 -8 c-30 -6 -48 -14 -48 -23 0 -12
37 -14 210 -14 173 0 210 2 210 14 0 8 -11 17 -25 20 -41 10 -69 61 -190 346
-64 151 -138 324 -164 385 -47 111 -70 135 -89 98z m12 -412 c31 -73 56 -137
56 -142 0 -5 -54 -9 -121 -9 -93 0 -120 3 -116 13 3 6 29 74 58 150 29 75 56
134 60 130 5 -5 33 -68 63 -142z"/>
<path d="M4182 7865 c-214 -60 -351 -286 -313 -516 27 -173 130 -295 293 -350
52 -17 81 -20 168 -17 128 4 184 28 281 117 60 56 63 60 47 77 -16 16 -20 14
-69 -30 -75 -67 -140 -98 -220 -104 -84 -6 -130 9 -186 61 -60 55 -84 133 -91
294 -5 138 8 233 42 308 92 202 331 169 455 -64 52 -99 61 -86 61 89 0 126 -2
150 -15 150 -8 0 -21 -13 -30 -30 -19 -37 -36 -38 -129 -4 -89 33 -216 41
-294 19z"/>
<path d="M5131 7858 c-60 -154 -298 -732 -313 -761 -12 -25 -31 -44 -54 -53
-19 -8 -34 -21 -34 -29 0 -13 22 -15 130 -15 101 0 130 3 130 13 0 8 -21 20
-47 28 -41 12 -48 18 -51 42 -2 15 9 59 23 98 l27 70 146 -3 146 -3 30 -84
c34 -97 31 -112 -33 -124 -25 -5 -41 -14 -41 -23 0 -12 33 -14 205 -14 157 0
205 3 205 13 0 6 -15 19 -33 27 -18 9 -41 32 -54 55 -12 22 -93 208 -180 413
-124 293 -161 372 -175 372 -10 0 -22 -10 -27 -22z m16 -405 l61 -148 -59 -3
c-32 -2 -87 -2 -122 0 l-64 3 56 147 c31 81 58 148 61 148 3 0 33 -66 67 -147z"/>
<path d="M6942 7865 c-214 -60 -351 -286 -313 -516 27 -173 130 -295 293 -350
52 -17 81 -20 168 -17 128 4 184 28 281 117 60 56 63 60 47 77 -16 16 -20 14
-69 -30 -75 -67 -140 -98 -220 -104 -84 -6 -130 9 -186 61 -60 55 -84 133 -91
294 -5 138 8 233 42 308 92 202 331 169 455 -64 52 -99 61 -86 61 89 0 126 -2
150 -15 150 -8 0 -21 -13 -30 -30 -19 -37 -36 -38 -129 -4 -89 33 -216 41
-294 19z"/>
<path d="M11687 7868 c-3 -7 -69 -170 -147 -363 -173 -426 -180 -441 -225
-462 -19 -9 -35 -23 -35 -30 0 -10 29 -13 130 -13 103 0 130 3 130 14 0 7 -18
17 -41 22 -67 14 -73 34 -41 129 l28 80 147 3 147 3 21 -48 c53 -125 49 -158
-22 -169 -23 -4 -39 -12 -39 -20 0 -11 38 -14 205 -14 157 0 205 3 205 13 0 6
-15 19 -33 27 -44 20 -60 53 -239 477 -112 266 -157 362 -169 363 -9 0 -19 -6
-22 -12z m73 -565 c0 -2 -57 -3 -126 -3 -97 0 -125 3 -121 13 3 6 26 66 52
132 26 66 51 131 57 145 8 22 16 9 74 -130 35 -85 64 -156 64 -157z"/>
<path d="M1980 7846 c0 -8 15 -19 33 -25 17 -6 39 -21 46 -33 8 -13 90 -198
182 -413 131 -304 172 -391 187 -393 16 -3 39 49 167 380 81 211 154 396 162
412 9 16 31 35 54 45 74 31 50 41 -96 41 -108 0 -135 -3 -135 -14 0 -9 16 -16
44 -20 55 -9 71 -26 62 -69 -10 -51 -180 -487 -187 -479 -17 19 -199 478 -199
502 0 30 31 50 80 50 20 0 30 5 30 15 0 13 -31 15 -215 15 -179 0 -215 -2
-215 -14z"/>
<path d="M5660 7845 c0 -8 5 -15 10 -15 6 0 31 -19 55 -41 l45 -42 0 -333 c0
-371 3 -354 -70 -374 -24 -6 -40 -17 -40 -25 0 -13 24 -15 145 -15 121 0 145
2 145 15 0 8 -16 19 -40 25 -44 12 -68 31 -75 63 -3 12 -4 143 -3 291 l3 269
278 -339 c159 -193 287 -340 298 -342 18 -3 19 8 20 375 1 208 4 392 8 408 4
23 16 35 49 50 76 35 56 45 -93 45 -108 0 -135 -3 -135 -14 0 -8 19 -18 46
-25 70 -18 75 -37 72 -292 l-3 -210 -220 270 -220 271 -137 0 c-116 0 -138 -2
-138 -15z"/>
<path d="M7500 7848 c1 -7 20 -22 42 -33 40 -19 50 -34 170 -250 l127 -230 0
-110 c-1 -60 -4 -121 -8 -135 -7 -26 -37 -45 -83 -55 -16 -3 -28 -12 -28 -20
0 -13 32 -15 220 -15 180 0 220 2 220 14 0 8 -18 18 -44 25 -67 17 -70 25 -74
190 l-4 146 129 210 c106 173 135 214 166 230 68 37 50 45 -103 45 -113 0
-140 -3 -140 -14 0 -9 16 -16 44 -20 59 -9 73 -26 59 -76 -10 -39 -172 -320
-184 -320 -11 0 -179 337 -179 358 0 25 28 42 69 42 21 0 31 5 31 15 0 13 -31
15 -215 15 -166 0 -215 -3 -215 -12z"/>
<path d="M8750 7850 c0 -5 23 -30 50 -56 l50 -47 0 -329 c0 -207 -4 -336 -10
-349 -6 -11 -30 -24 -55 -30 -26 -7 -45 -17 -45 -25 0 -11 28 -14 145 -14 117
0 145 3 145 14 0 8 -19 18 -45 25 -76 19 -76 18 -73 342 l3 285 280 -343 c169
-206 287 -342 298 -342 16 -1 17 24 17 383 0 251 4 394 11 414 8 24 20 34 50
43 21 7 39 18 39 26 0 10 -29 13 -135 13 -104 0 -135 -3 -135 -13 0 -7 20 -18
45 -25 72 -19 76 -33 73 -289 l-3 -217 -220 272 -220 271 -132 1 c-79 0 -133
-4 -133 -10z"/>
<path d="M9660 7846 c0 -8 15 -16 36 -19 77 -13 74 3 74 -397 0 -399 3 -381
-72 -395 -22 -4 -38 -13 -38 -21 0 -12 61 -14 373 -14 l373 0 22 123 c26 144
26 137 7 137 -8 0 -24 -18 -36 -41 -32 -63 -94 -124 -152 -150 -70 -30 -205
-39 -242 -15 l-25 16 0 175 0 175 29 0 c95 0 150 -54 175 -172 4 -16 13 -28
21 -28 13 0 15 32 15 216 0 194 -2 215 -16 212 -11 -2 -21 -21 -29 -51 -22
-86 -61 -121 -149 -133 l-46 -7 0 171 c0 199 -3 192 102 192 155 -1 235 -46
266 -152 28 -97 42 -75 42 67 l0 125 -365 0 c-302 0 -365 -2 -365 -14z"/>
<path d="M10510 7846 c0 -8 16 -16 39 -20 72 -11 71 -8 71 -388 0 -192 -4
-348 -10 -362 -7 -19 -21 -28 -55 -37 -26 -7 -45 -17 -45 -25 0 -12 39 -14
215 -14 176 0 215 2 215 14 0 8 -18 18 -44 25 -68 17 -71 24 -71 195 l0 151
105 6 c138 7 200 28 261 89 36 36 49 58 57 96 22 103 -18 194 -106 238 -77 39
-138 46 -392 46 -197 0 -240 -2 -240 -14z m469 -53 c44 -33 56 -69 56 -168 0
-140 -34 -181 -156 -192 l-59 -6 0 177 c0 166 1 177 21 197 17 17 30 20 66 16
25 -3 57 -14 72 -24z"/>
<path d="M12220 7845 c0 -8 9 -15 20 -15 41 0 70 -23 81 -62 6 -25 9 -159 7
-362 -3 -357 -1 -347 -69 -368 -22 -6 -39 -17 -39 -25 0 -11 66 -13 365 -13
201 0 365 2 365 3 0 2 11 64 25 138 29 158 29 149 11 149 -8 0 -32 -32 -52
-70 -45 -86 -108 -144 -177 -165 -68 -20 -176 -20 -205 1 l-22 15 0 344 c0
189 4 355 9 368 10 25 55 47 97 47 15 0 24 6 24 15 0 13 -31 15 -220 15 -189
0 -220 -2 -220 -15z"/>
</g>
</svg>
